<?xml version="1.0" encoding="UTF-8" standalone="no"?>
<svg
   width="173"
   height="56"
   version="1.1"
   viewBox="0 0 173 56"
   id="svg129"
   xmlns:xlink="http://www.w3.org/1999/xlink"
   xmlns="http://www.w3.org/2000/svg"
   xmlns:svg="http://www.w3.org/2000/svg">
  <defs
     id="defs41">
    <linearGradient
       id="lightly-shadow">
      <stop
         offset="0"
         id="stop2" />
      <stop
         stop-opacity=".58"
         offset=".19231"
         id="stop4" />
      <stop
         stop-opacity=".29"
         offset=".38462"
         id="stop6" />
      <stop
         stop-opacity=".11"
         offset=".57692"
         id="stop8" />
      <stop
         stop-opacity=".02"
         offset=".76923"
         id="stop10" />
      <stop
         stop-opacity="0"
         offset=".96154"
         id="stop12" />
      <stop
         stop-opacity="0"
         offset="1"
         id="stop14" />
    </linearGradient>
    <style
       id="current-color-scheme"
       type="text/css">.ColorScheme-Text {
        color:#31363b;
        stop-color:#31363b;
      }
      .ColorScheme-Background {
        color:#eff0f1;
        stop-color:#eff0f1;
      }
      .ColorScheme-Highlight {
        color:#3daee9;
        stop-color:#3daee9;
      }
      .ColorScheme-ViewText {
        color:#31363b;
        stop-color:#31363b;
      }
      .ColorScheme-ViewBackground {
        color:#fcfcfc;
        stop-color:#fcfcfc;
      }
      .ColorScheme-ViewHover {
        color:#93cee9;
        stop-color:#93cee9;
      }
      .ColorScheme-ViewFocus{
        color:#3daee9;
        stop-color:#3daee9;
      }
      .ColorScheme-ButtonText {
        color:#31363b;
        stop-color:#31363b;
      }
      .ColorScheme-ButtonBackground {
        color:#eff0f1;
        stop-color:#eff0f1;
      }
      .ColorScheme-ButtonHover {
        color:#93cee9;
        stop-color:#93cee9;
      }
      .ColorScheme-ButtonFocus{
        color:#3daee9;
        stop-color:#3daee9;
      }</style>
    <linearGradient
       id="linearGradient17174"
       x1="-3"
       x2="-3"
       y1="904.36"
       y2="930.36"
       gradientUnits="userSpaceOnUse"
       xlink:href="#lightly-shadow" />
    <linearGradient
       id="linearGradient17437"
       x1="-3.0999"
       x2="-3.0999"
       y1="904.36"
       y2="930.36"
       gradientTransform="matrix(3.3333 0 0 1 165.33 99)"
       gradientUnits="userSpaceOnUse"
       xlink:href="#lightly-shadow" />
    <linearGradient
       id="linearGradient18968"
       x1="-3"
       x2="-3"
       y1="904.36"
       y2="930.36"
       gradientTransform="matrix(.66667 0 0 1 985.03 -1053.4)"
       gradientUnits="userSpaceOnUse"
       xlink:href="#lightly-shadow" />
    <linearGradient
       id="linearGradient19775"
       x1="-2.5001"
       x2="-2.5001"
       y1="904.36"
       y2="930.36"
       gradientTransform="matrix(3.3333 0 0 1 -147.67 -1891.7)"
       gradientUnits="userSpaceOnUse"
       xlink:href="#lightly-shadow" />
    <radialGradient
       id="radialGradient19944"
       cx="82"
       cy="945.47"
       r="14"
       gradientTransform="matrix(-2.4286 3.0438e-6 -3.0984e-6 -2.4286 385.15 3291.5)"
       gradientUnits="userSpaceOnUse"
       xlink:href="#lightlycorner" />
    <linearGradient
       id="lightlycorner">
      <stop
         offset="0"
         id="stop23" />
      <stop
         offset=".2353"
         id="stop25" />
      <stop
         stop-opacity=".58"
         offset=".38235"
         id="stop27" />
      <stop
         stop-opacity=".29"
         offset=".52941"
         id="stop29" />
      <stop
         stop-opacity=".11"
         offset=".67647"
         id="stop31" />
      <stop
         stop-opacity=".02"
         offset=".82353"
         id="stop33" />
      <stop
         stop-opacity="0"
         offset=".97059"
         id="stop35" />
      <stop
         stop-opacity="0"
         offset="1"
         id="stop37" />
    </linearGradient>
    <radialGradient
       id="radialGradient19944-0"
       cx="82"
       cy="945.47"
       r="14"
       gradientTransform="matrix(-2.4286 3.0438e-6 -3.0984e-6 -2.4286 1180.5 2145.2)"
       gradientUnits="userSpaceOnUse"
       xlink:href="#lightlycorner" />
  </defs>
  <g
     transform="translate(0 -904.36)"
     id="g127">
    <g
       id="shadow-topleft"
       transform="translate(-28 -55)">
      <path
         transform="rotate(90)"
         d="m947.36-117h34v-18h-18c-3.324 0-6-2.676-6-6v-10h-10z"
         fill="url(#radialGradient19944-0)"
         opacity=".16"
         stroke-linecap="round"
         stroke-linejoin="round"
         id="path43" />
      <path
         d="m151 956.36h-9.9997c-3.878 0-7 3.122-7 7v18h0.9997v-18c0-3.324 2.676-6 6-6h9.9997z"
         opacity=".05"
         id="path45" />
    </g>
    <g
       id="shadow-left"
       transform="matrix(1 0 0 5 -34 -3984.4)">
      <path
         d="m141 984.36 1.7e-4 -2h16l-2.4e-4 2z"
         color="#eff0f1"
         opacity=".003"
         stroke-width=".66667"
         id="path48" />
      <rect
         transform="rotate(90)"
         x="982.36"
         y="-141"
         width="2"
         height="18"
         fill="url(#linearGradient18968)"
         opacity=".16"
         stroke-linecap="round"
         stroke-linejoin="round"
         stroke-width=".8165"
         id="rect50" />
      <rect
         x="140"
         y="982.36"
         width="1"
         height="2"
         opacity=".05"
         id="rect52" />
    </g>
    <g
       id="shadow-bottomleft"
       transform="translate(-63 -55)">
      <path
         d="m152 995.36v34h34v-26h-10c-3.324 0-6-2.676-6-6v-2z"
         fill="url(#radialGradient19944)"
         opacity=".16"
         stroke-linecap="round"
         stroke-linejoin="round"
         id="path55" />
      <path
         d="m169 995.36v2.0003c0 3.878 3.122 7 7 7h10v-0.9997h-10c-3.324 0-6-2.676-6-6v-2.0003z"
         opacity=".05"
         id="path57" />
    </g>
    <g
       id="shadow-bottom"
       transform="translate(-27 -55)">
      <path
         d="m152 1003.4 10-2e-4v-8l-10 1.8e-4z"
         color="#eff0f1"
         opacity=".003"
         stroke-width=".66667"
         id="path60" />
      <rect
         x="152"
         y="1003.4"
         width="10"
         height="26"
         fill="url(#linearGradient17437)"
         opacity=".16"
         stroke-linecap="round"
         stroke-linejoin="round"
         stroke-width="1.8257"
         id="rect62" />
      <rect
         transform="rotate(90)"
         x="1003.4"
         y="-162"
         width="1"
         height="10"
         opacity=".05"
         stroke-width="2.2361"
         id="rect64" />
    </g>
    <g
       id="shadow-top"
       transform="translate(-26 -69)">
      <path
         d="m151 971.36 10 1.7e-4 5e-4 24-10-2.4e-4z"
         color="#eff0f1"
         opacity=".003"
         stroke-width=".66667"
         id="path67" />
      <rect
         transform="scale(-1)"
         x="-161"
         y="-971.36"
         width="10"
         height="10"
         fill="url(#linearGradient19775)"
         opacity=".16"
         stroke-linecap="round"
         stroke-linejoin="round"
         stroke-width="1.8257"
         id="rect69" />
      <rect
         transform="rotate(90)"
         x="970.36"
         y="-161"
         width="1"
         height="10"
         opacity=".05"
         stroke-width="2.2361"
         id="rect71" />
    </g>
    <rect
       id="hint-stretch-center"
       y="904.36"
       width="5"
       height="5"
       fill="#f60" />
    <g
       id="topleft"
       transform="matrix(.66667 0 0 .66667 5.3333 305.45)"
       opacity=".85">
      <path
         class="ColorScheme-Background"
         transform="matrix(1.5 0 0 1.5 -8 898.36)"
         d="m18 6c-3.324 0-6 2.676-6 6h6z"
         fill="currentColor"
         opacity="1"
         stroke-width=".66667"
         id="path75" />
      <path
         transform="matrix(1.5 0 0 1.5 -8 898.36)"
         d="m18 6c-3.324 0-6 2.676-6 6h1c0-2.77 2.23-5 5-5v-1z"
         fill="#fff"
         opacity=".16"
         id="path77" />
    </g>
    <g
       id="left"
       transform="matrix(.66667 0 0 1 5.3333 .99996)"
       opacity=".85">
      <rect
         class="ColorScheme-Background"
         transform="scale(-1,1)"
         x="-19"
         y="916.36"
         width="9"
         height="32"
         fill="currentColor"
         opacity="1"
         id="rect80" />
      <rect
         transform="scale(-1,1)"
         x="-11.5"
         y="916.36"
         width="1.5"
         height="32"
         fill="#fff"
         opacity=".16"
         id="rect82" />
    </g>
    <g
       id="center"
       transform="translate(-4.0381e-6 .99998)"
       opacity=".85">
      <rect
         x="19"
         y="916.36"
         width="32"
         height="32"
         fill="none"
         id="rect85" />
      <rect
         class="ColorScheme-Background"
         x="19"
         y="916.36"
         width="32"
         height="32"
         fill="currentColor"
         opacity="1"
         id="rect87" />
    </g>
    <rect
       id="hint-left-margin"
       transform="rotate(90)"
       x="930.36"
       y="-18"
       width="4"
       height="6"
       fill="#f0f" />
    <rect
       id="hint-no-border-paddingNO"
       x="6"
       y="904.36"
       width="5"
       height="5"
       fill="#f60" />
    <use
       id="shadow-topright"
       transform="matrix(-1 0 0 1 259 4.9512e-5)"
       width="100%"
       height="100%"
       xlink:href="#shadow-topleft" />
    <g
       id="shadow-center"
       transform="matrix(.3125 0 0 .3125 119.06 641)"
       fill="none">
      <rect
         x="19"
         y="916.36"
         width="32"
         height="32"
         id="rect93" />
      <rect
         x="19"
         y="916.36"
         width="32"
         height="32"
         id="rect95" />
    </g>
    <rect
       id="shadow-hint-top-margin"
       x="128"
       y="892.36"
       width="4"
       height="10"
       fill="#f0f" />
    <rect
       id="shadow-hint-bottom-margin"
       x="128"
       y="948.36"
       width="4"
       height="26"
       fill="#f0f" />
    <use
       id="shadow-right"
       transform="matrix(-1 0 0 1 259 5.7638e-6)"
       width="100%"
       height="100%"
       xlink:href="#shadow-left" />
    <rect
       id="shadow-hint-right-margin"
       transform="rotate(90)"
       x="930.36"
       y="-170"
       width="4"
       height="18"
       fill="#f0f" />
    <rect
       id="shadow-hint-left-margin"
       transform="rotate(90)"
       x="930.36"
       y="-107"
       width="4"
       height="18"
       fill="#f0f" />
    <use
       id="topright"
       transform="matrix(0 1 -1 0 968.36 898.36)"
       width="173"
       height="56.000004"
       xlink:href="#topleft" />
    <use
       id="top"
       transform="matrix(0 1 -1 0 968.36 898.36)"
       width="173"
       height="56.000004"
       xlink:href="#left" />
    <use
       id="bottomleft"
       transform="matrix(0 -1 1 0 -898.36 968.36)"
       width="173"
       height="56.000004"
       xlink:href="#topleft" />
    <use
       id="bottom"
       transform="matrix(0 -1 1 0 -898.36 968.36)"
       width="173"
       height="56.000004"
       xlink:href="#left" />
    <use
       id="bottomright"
       transform="matrix(-1 0 0 -1 70 1866.7)"
       width="173"
       height="56.000004"
       xlink:href="#topleft" />
    <use
       id="right"
       transform="matrix(-1 0 0 -1 70 1866.7)"
       width="173"
       height="56.000004"
       xlink:href="#left" />
    <rect
       id="hint-top-margin"
       x="33"
       y="910.36"
       width="4"
       height="6"
       fill="#f0f" />
    <rect
       id="hint-bottom-margin"
       x="34"
       y="950.36"
       width="4"
       height="6.0001"
       fill="#f0f" />
    <use
       id="shadow-bottomright"
       transform="matrix(-1 0 0 1 260 4.4e-5)"
       width="100%"
       height="100%"
       xlink:href="#shadow-bottomleft" />
    <path
       d="m195 904.36v3c0-1.662 1.338-3 3-3z"
       fill="#404040"
       opacity=".89363"
       id="path112" />
    <rect
       x="-4"
       y="904.36"
       width="3"
       height="26"
       fill="url(#linearGradient17174)"
       stroke-linecap="round"
       stroke-linejoin="round"
       id="rect114" />
    <rect
       id="hint-stretch-borders"
       y="910.36"
       width="5"
       height="5"
       fill="#f60" />
    <rect
       id="mask-top"
       x="190"
       y="908.36"
       width="32"
       height="6" />
    <rect
       id="mask-center"
       x="190"
       y="914.36"
       width="32"
       height="32" />
    <rect
       id="mask-bottom"
       transform="scale(1,-1)"
       x="190"
       y="-952.36"
       width="32"
       height="6" />
    <rect
       id="mask-left"
       x="184"
       y="914.36"
       width="6"
       height="32" />
    <rect
       id="mask-right"
       x="222"
       y="914.36"
       width="6"
       height="32" />
    <path
       id="mask-topleft"
       d="m190 908.36c-3.3137 0-6 2.6863-6 6h6z" />
    <path
       id="mask-topright"
       d="m222 914.36h6c0-3.3137-2.6863-6-6-6z" />
    <path
       id="mask-bottomleft"
       d="m190 952.36v-6h-6c0 3.3137 2.6863 6 6 6z" />
    <path
       id="mask-bottomright"
       d="m222 952.36v-6h6c0 3.3137-2.6863 6-6 6z" />
    <use
       id="hint-right-margin"
       transform="matrix(-1 0 0 1 70 2.1383e-5)"
       xlink:href="#hint-left-margin" />
  </g>
</svg>
