<?xml version="1.0" encoding="UTF-8" standalone="no"?>
<svg
   version="1.1"
   viewBox="0 0 173 56"
   id="svg103"
   sodipodi:docname="plasmoidheading.svg"
   inkscape:version="1.2.1 (9c6d41e410, 2022-07-14, custom)"
   xmlns:inkscape="http://www.inkscape.org/namespaces/inkscape"
   xmlns:sodipodi="http://sodipodi.sourceforge.net/DTD/sodipodi-0.dtd"
   xmlns:xlink="http://www.w3.org/1999/xlink"
   xmlns="http://www.w3.org/2000/svg"
   xmlns:svg="http://www.w3.org/2000/svg">
  <sodipodi:namedview
     id="namedview105"
     pagecolor="#505050"
     bordercolor="#ffffff"
     borderopacity="1"
     inkscape:showpageshadow="0"
     inkscape:pageopacity="0"
     inkscape:pagecheckerboard="1"
     inkscape:deskcolor="#505050"
     showgrid="false"
     inkscape:zoom="7.5895954"
     inkscape:cx="46.313404"
     inkscape:cy="19.302742"
     inkscape:window-width="1445"
     inkscape:window-height="1080"
     inkscape:window-x="0"
     inkscape:window-y="0"
     inkscape:window-maximized="0"
     inkscape:current-layer="svg103" />
  <defs
     id="defs17">
    <linearGradient
       id="linearGradient2179"
       x1="-23"
       x2="-23"
       y1="9.3622"
       y2="12.362"
       gradientTransform="matrix(1 0 0 1.6667 51 -37.604)"
       gradientUnits="userSpaceOnUse"
       xlink:href="#buttonNew" />
    <linearGradient
       id="buttonNew">
      <stop
         offset="0"
         id="stop3" />
      <stop
         stop-opacity=".639"
         offset=".2"
         id="stop5" />
      <stop
         stop-opacity=".361"
         offset=".4"
         id="stop7" />
      <stop
         stop-opacity=".161"
         offset=".6"
         id="stop9" />
      <stop
         stop-opacity=".039"
         offset=".8"
         id="stop11" />
      <stop
         stop-opacity="0"
         offset="1"
         id="stop13" />
    </linearGradient>
    <linearGradient
       id="linearGradient2179-3"
       x1="-23"
       x2="-23"
       y1="9.3622"
       y2="12.362"
       gradientTransform="matrix(1 0 0 1.6667 44 -37.604)"
       gradientUnits="userSpaceOnUse"
       xlink:href="#buttonNew" />
  </defs>
  <style
     id="current-color-scheme"
     type="text/css">.ColorScheme-Text {
            color:#232629;
        }
        .ColorScheme-Background {
            color:#eff0f1;
        }</style>
  <path
     id="hint-stretch-borders"
     d="m-7-7h5v5h-5z"
     opacity=".6" />
  <g
     fill="#f0f"
     id="g25">
    <path
       id="hint-top-margin"
       d="m14 4.0199e-6h4v6h-4z" />
    <path
       id="hint-bottom-margin"
       d="m14 26h4v6h-4z" />
    <path
       id="hint-right-margin"
       d="m32 14v4h-6v-4z" />
    <path
       id="hint-left-margin"
       d="m6 14v4h-6v-4z" />
  </g>
  <rect
     x="-32"
     y="4e-6"
     width="32"
     height="32"
     fill="none"
     stroke="#000"
     id="rect27" />
  <g
     fill="#fff"
     id="g34">
    <rect
       id="invisibleMarginLeft"
       x="-27"
       y="8"
       width="2"
       height="6"
       opacity=".003"
       stroke-width=".57735" />
    <rect
       id="invisibleMarginTop"
       x="-24"
       y="5"
       width="6"
       height="2"
       opacity=".003"
       stroke-width=".57735" />
    <rect
       id="invisibleMarginTopLeft"
       x="-27"
       y="5"
       width="2"
       height="2"
       opacity=".003"
       stroke-width=".33333" />
    <rect
       id="invisibleMarginBottomLeft"
       x="-27"
       y="15"
       width="2"
       height="2"
       opacity=".003"
       stroke-width=".33333" />
    <rect
       id="invisibleMarginBottom"
       x="-24"
       y="15"
       width="6"
       height="2"
       fill="#fff"
       opacity=".003"
       stroke-width=".57735" />
  </g>
  <path
     id="headerTopCenter"
     class="ColorScheme-Background"
     d="m-24 8h6v6h-6z"
     opacity=".02" />
  <path
     id="headerTopTopLeft"
     d="m-25 1c-3.324 0-6 2.676-6 6h6z"
     opacity=".02" />
  <path
     id="headerTopTop"
     class="ColorScheme-Background"
     d="m-24 1h6v6h-6z"
     opacity=".02" />
  <path
     id="headerTopLeft"
     class="ColorScheme-Background"
     d="m-31 8h6v6h-6z"
     opacity=".02" />
  <g
     id="headerTopBottomLeft">
    <path
       d="m-31 15v6h6v-6z"
       opacity=".02"
       id="path40" />
    <rect
       transform="scale(-1)"
       x="25"
       y="-21"
       width="6"
       height="4"
       fill="url(#linearGradient2179)"
       opacity=".15"
       stroke-width=".91287"
       id="rect42" />
  </g>
  <g
     id="headerTopBottom">
    <path
       class="ColorScheme-Background"
       d="m-24 15h6v6h-6z"
       opacity=".02"
       id="path45" />
    <rect
       transform="scale(-1)"
       x="18"
       y="-21"
       width="6"
       height="4"
       fill="url(#linearGradient2179-3)"
       opacity=".15"
       stroke-width=".91287"
       id="rect47" />
  </g>
  <g
     id="header-bottom">
    <use
       transform="translate(37,5)"
       width="173"
       height="56.000004"
       xlink:href="#invisibleMarginBottom"
       id="use50" />
  </g>
  <rect
     id="invisibleMarginFooterLeft"
     x="-10"
     y="8"
     width="2"
     height="6"
     fill="#fff"
     opacity=".003"
     stroke-width=".57735" />
  <rect
     id="invisibleMarginFooterTop"
     x="-7"
     y="5"
     width="6"
     height="2"
     fill="#fff"
     opacity=".003"
     stroke-width=".57735" />
  <rect
     id="invisibleMarginFooterTopLeft"
     x="-10"
     y="5"
     width="2"
     height="2"
     fill="#fff"
     opacity=".003"
     stroke-width=".33333" />
  <rect
     id="invisibleMarginFooterBottomLeft"
     x="-10"
     y="15"
     width="2"
     height="2"
     fill="#fff"
     opacity=".003"
     stroke-width=".33333" />
  <rect
     id="invisibleMarginFooterBottom"
     x="-7"
     y="15"
     width="6"
     height="2"
     fill="#fff"
     opacity=".003"
     stroke-width=".57735" />
  <path
     id="footerCenter"
     class="ColorScheme-Background"
     d="m-7 8h6v6h-6z"
     opacity=".04" />
  <g
     id="footerTopLeft">
    <path
       d="m-8 1h-6v6h6z"
       opacity=".04"
       id="path59" />
    <path
       d="m-8 1h-6v1h6z"
       opacity=".15"
       stroke-width=".40825"
       id="path61" />
  </g>
  <g
     id="footerTop">
    <path
       class="ColorScheme-Background"
       d="m-7 1h6v6h-6z"
       opacity=".04"
       id="path64" />
    <path
       class="ColorScheme-Background"
       d="m-7 1h6v1h-6z"
       opacity=".15"
       stroke-width=".40825"
       id="path66" />
  </g>
  <path
     id="footerLeft"
     class="ColorScheme-Background"
     d="m-14 8h6v6h-6z"
     opacity=".04" />
  <path
     id="footerBottomLeft"
     d="m-14 15c0 3.324 2.676 6 6 6v-6z"
     opacity=".04" />
  <path
     id="footerBottom"
     class="ColorScheme-Background"
     d="m-7 15h6v6h-6z"
     opacity=".04" />
  <path
     d="m-27-5v3c0-1.662 1.338-3 3-3z"
     fill="#404040"
     opacity=".89363"
     id="path101" />
  <use
     height="56.000004"
     width="173"
     transform="translate(52,5.0000001)"
     id="footer-center"
     xlink:href="#footerCenter"
     y="0"
     x="0" />
  <g
     id="footer-topleft">
    <use
       x="0"
       y="0"
       xlink:href="#invisibleMarginFooterTopLeft"
       id="use16543"
       transform="translate(52,5)"
       width="173"
       height="56.000004" />
    <use
       x="0"
       y="0"
       xlink:href="#footerTopLeft"
       id="use16551"
       transform="translate(52,5)"
       width="173"
       height="56.000004" />
  </g>
  <g
     id="footer-top">
    <use
       x="0"
       y="0"
       xlink:href="#invisibleMarginFooterTop"
       id="use16541"
       transform="translate(52,5)"
       width="173"
       height="56.000004" />
    <use
       x="0"
       y="0"
       xlink:href="#footerTop"
       id="use16553"
       transform="translate(52,5)"
       width="173"
       height="56.000004" />
  </g>
  <g
     id="footer-left">
    <use
       x="0"
       y="0"
       xlink:href="#invisibleMarginFooterLeft"
       id="use16539"
       transform="translate(52,5)"
       width="173"
       height="56.000004" />
    <use
       x="0"
       y="0"
       xlink:href="#footerLeft"
       id="use16555"
       transform="translate(52,5)"
       width="173"
       height="56.000004" />
  </g>
  <g
     id="footer-bottomleft">
    <use
       x="0"
       y="0"
       xlink:href="#invisibleMarginFooterBottomLeft"
       id="use16545"
       transform="translate(52,5)"
       width="173"
       height="56.000004" />
    <use
       x="0"
       y="0"
       xlink:href="#footerBottomLeft"
       id="use16557"
       transform="translate(52,5)"
       width="173"
       height="56.000004" />
  </g>
  <g
     id="footer-bottom">
    <use
       x="0"
       y="0"
       xlink:href="#invisibleMarginFooterBottom"
       id="use16547"
       transform="translate(52,5)"
       width="173"
       height="56.000004" />
    <use
       x="0"
       y="0"
       xlink:href="#footerBottom"
       id="use16559"
       transform="translate(52,5)"
       width="173"
       height="56.000004" />
  </g>
  <use
     height="56.000004"
     width="173"
     transform="matrix(-1,0,0,1,96.000004,-9.9999999e-8)"
     id="footer-topright"
     xlink:href="#footer-topleft"
     y="0"
     x="0" />
  <use
     height="56.000004"
     width="173"
     transform="matrix(-1,0,0,1,96.000004,-9.9999999e-8)"
     id="footer-right"
     xlink:href="#footer-left"
     y="0"
     x="0" />
  <use
     height="56.000004"
     width="173"
     transform="matrix(-1,0,0,1,96.000004,-9.9999999e-8)"
     id="footer-bottomright"
     xlink:href="#footer-bottomleft"
     y="0"
     x="0" />
</svg>
